<svg width="30" height="26" viewBox="0 0 30 26" fill="none" xmlns="http://www.w3.org/2000/svg">
<path fillRule="evenodd" clipRule="evenodd" d="M0 2.42856C0 1.86024 0.225765 1.3152 0.627628 0.913334C1.02949 0.511471 1.57454 0.285706 2.14286 0.285706H27.8571C28.4255 0.285706 28.9705 0.511471 29.3724 0.913334C29.7742 1.3152 30 1.86024 30 2.42856C30 2.99688 29.7742 3.54193 29.3724 3.94379C28.9705 4.34565 28.4255 4.57142 27.8571 4.57142H2.14286C1.57454 4.57142 1.02949 4.34565 0.627628 3.94379C0.225765 3.54193 0 2.99688 0 2.42856Z" fill="#A6A6A6"/>
<path fillRule="evenodd" clipRule="evenodd" d="M0 13.1429C0 12.5745 0.225765 12.0295 0.627628 11.6276C1.02949 11.2258 1.57454 11 2.14286 11H27.8571C28.4255 11 28.9705 11.2258 29.3724 11.6276C29.7742 12.0295 30 12.5745 30 13.1429C30 13.7112 29.7742 14.2562 29.3724 14.6581C28.9705 15.0599 28.4255 15.2857 27.8571 15.2857H2.14286C1.57454 15.2857 1.02949 15.0599 0.627628 14.6581C0.225765 14.2562 0 13.7112 0 13.1429Z" fill="#A6A6A6"/>
<path fillRule="evenodd" clipRule="evenodd" d="M0 23.8571C0 23.2888 0.225765 22.7437 0.627628 22.3419C1.02949 21.94 1.57454 21.7142 2.14286 21.7142H15C15.5683 21.7142 16.1134 21.94 16.5152 22.3419C16.9171 22.7437 17.1429 23.2888 17.1429 23.8571C17.1429 24.4254 16.9171 24.9705 16.5152 25.3723C16.1134 25.7742 15.5683 25.9999 15 25.9999H2.14286C1.57454 25.9999 1.02949 25.7742 0.627628 25.3723C0.225765 24.9705 0 24.4254 0 23.8571Z" fill="#A6A6A6"/>
</svg>
